<svg xmlns="http://www.w3.org/2000/svg" xmlns:xlink="http://www.w3.org/1999/xlink" contentStyleType="text/css" data-diagram-type="DESCRIPTION" height="1680px" preserveAspectRatio="none" style="width:886px;height:1680px;background:#FFFFFF;" version="1.1" viewBox="0 0 886 1680" width="886px" zoomAndPan="magnify"><defs/><g><!--cluster Clinic Management System--><g class="cluster" data-entity="Clinic Management System" data-source-line="10" data-uid="ent0005" id="cluster_Clinic Management System"><rect fill="none" height="1413" rx="2.5" ry="2.5" style="stroke:#181818;stroke-width:1;" width="780.94" x="99.48" y="118.75"/><text fill="#000000" font-family="sans-serif" font-size="14" font-weight="bold" lengthAdjust="spacing" textLength="193.4844" x="393.2078" y="134.2852">Clinic Management System</text></g><g class="entity" data-entity="UC_P1" data-source-line="13" data-uid="ent0006" id="entity_UC_P1"><ellipse cx="260.06" cy="177.748" fill="#F1F1F1" rx="110.09" ry="24.418" style="stroke:#181818;stroke-width:0.5;"/><text fill="#000000" font-family="sans-serif" font-size="14" lengthAdjust="spacing" textLength="185.6777" x="167.2211" y="181.039">UC-P1: Patient Registration</text></g><g class="entity" data-entity="UC_P2" data-source-line="14" data-uid="ent0007" id="entity_UC_P2"><ellipse cx="260.0557" cy="260.7531" fill="#F1F1F1" rx="106.9657" ry="23.7931" style="stroke:#181818;stroke-width:0.5;"/><text fill="#000000" font-family="sans-serif" font-size="14" lengthAdjust="spacing" textLength="178.8896" x="170.6108" y="264.0441">UC-P2: Search for Doctors</text></g><g class="entity" data-entity="UC_P3" data-source-line="15" data-uid="ent0008" id="entity_UC_P3"><ellipse cx="260.063" cy="343.7546" fill="#F1F1F1" rx="107.223" ry="23.8446" style="stroke:#181818;stroke-width:0.5;"/><text fill="#000000" font-family="sans-serif" font-size="14" lengthAdjust="spacing" textLength="179.4502" x="170.3379" y="347.0456">UC-P3: Book Appointment</text></g><g class="entity" data-entity="UC_P4" data-source-line="16" data-uid="ent0009" id="entity_UC_P4"><ellipse cx="725.0332" cy="220.7466" fill="#F1F1F1" rx="119.4832" ry="26.2966" style="stroke:#181818;stroke-width:0.5;"/><text fill="#000000" font-family="sans-serif" font-size="14" lengthAdjust="spacing" textLength="205.8916" x="622.0874" y="224.0377">UC-P4: Manage Appointments</text></g><g class="entity" data-entity="UC_P5" data-source-line="17" data-uid="ent0010" id="entity_UC_P5"><ellipse cx="260.0558" cy="422.7532" fill="#F1F1F1" rx="86.3158" ry="19.6632" style="stroke:#181818;stroke-width:0.5;"/><text fill="#000000" font-family="sans-serif" font-size="14" lengthAdjust="spacing" textLength="132.8086" x="193.6515" y="426.0442">UC-P5: Rate Doctor</text></g><g class="entity" data-entity="UC_P6" data-source-line="18" data-uid="ent0011" id="entity_UC_P6"><ellipse cx="260.058" cy="503.7516" fill="#F1F1F1" rx="118.908" ry="26.1816" style="stroke:#181818;stroke-width:0.5;"/><text fill="#000000" font-family="sans-serif" font-size="14" lengthAdjust="spacing" textLength="204.6611" x="157.7274" y="507.0426">UC-P6: Update Medical Profile</text></g><g class="entity" data-entity="UC_D1" data-source-line="21" data-uid="ent0012" id="entity_UC_D1"><ellipse cx="260.0561" cy="1039.7512" fill="#F1F1F1" rx="111.0561" ry="24.6112" style="stroke:#181818;stroke-width:0.5;"/><text fill="#000000" font-family="sans-serif" font-size="14" lengthAdjust="spacing" textLength="187.7695" x="166.1713" y="1043.0422">UC-D1: Doctor Registration</text></g><g class="entity" data-entity="UC_D2" data-source-line="22" data-uid="ent0013" id="entity_UC_D2"><ellipse cx="260.0628" cy="592.7466" fill="#F1F1F1" rx="125.9328" ry="27.5866" style="stroke:#181818;stroke-width:0.5;"/><text fill="#000000" font-family="sans-serif" font-size="14" lengthAdjust="spacing" textLength="219.6318" x="150.2469" y="596.0376">UC-D2: Set Availability Schedule</text></g><g class="entity" data-entity="UC_D3" data-source-line="23" data-uid="ent0014" id="entity_UC_D3"><ellipse cx="260.0589" cy="686.7458" fill="#F1F1F1" rx="144.5789" ry="31.3158" style="stroke:#181818;stroke-width:0.5;"/><text fill="#000000" font-family="sans-serif" font-size="14" lengthAdjust="spacing" textLength="258.8906" x="130.6136" y="690.0368">UC-D3: Manage Doctor Appointments</text></g><g class="entity" data-entity="UC_D4" data-source-line="24" data-uid="ent0015" id="entity_UC_D4"><ellipse cx="260.0551" cy="777.745" fill="#F1F1F1" rx="112.6251" ry="24.925" style="stroke:#181818;stroke-width:0.5;"/><text fill="#000000" font-family="sans-serif" font-size="14" lengthAdjust="spacing" textLength="191.1602" x="164.475" y="781.036">UC-D4: View Patient History</text></g><g class="entity" data-entity="UC_D5" data-source-line="25" data-uid="ent0016" id="entity_UC_D5"><ellipse cx="260.059" cy="861.7498" fill="#F1F1F1" rx="109.699" ry="24.3398" style="stroke:#181818;stroke-width:0.5;"/><text fill="#000000" font-family="sans-serif" font-size="14" lengthAdjust="spacing" textLength="184.8301" x="167.6439" y="865.0408">UC-D5: Create Prescription</text></g><g class="entity" data-entity="UC_D6" data-source-line="26" data-uid="ent0017" id="entity_UC_D6"><ellipse cx="260.0599" cy="950.746" fill="#F1F1F1" rx="135.6799" ry="29.536" style="stroke:#181818;stroke-width:0.5;"/><text fill="#000000" font-family="sans-serif" font-size="14" lengthAdjust="spacing" textLength="240.2285" x="139.9456" y="954.037">UC-D6: View Ratings and Feedback</text></g><g class="entity" data-entity="UC_A1" data-source-line="29" data-uid="ent0018" id="entity_UC_A1"><ellipse cx="725.0322" cy="1373.7484" fill="#F1F1F1" rx="139.3922" ry="30.2784" style="stroke:#181818;stroke-width:0.5;"/><text fill="#000000" font-family="sans-serif" font-size="14" lengthAdjust="spacing" textLength="248.0283" x="601.018" y="1377.0395">UC-A1: Approve Doctor Registration</text></g><g class="entity" data-entity="UC_A2" data-source-line="30" data-uid="ent0019" id="entity_UC_A2"><ellipse cx="260.0589" cy="1487.7518" fill="#F1F1F1" rx="128.4089" ry="28.0818" style="stroke:#181818;stroke-width:0.5;"/><text fill="#000000" font-family="sans-serif" font-size="14" lengthAdjust="spacing" textLength="224.8818" x="147.618" y="1491.0428">UC-A2: Generate System Reports</text></g><g class="entity" data-entity="UC_A3" data-source-line="31" data-uid="ent0020" id="entity_UC_A3"><ellipse cx="260.0605" cy="1126.7541" fill="#F1F1F1" rx="125.6205" ry="27.5241" style="stroke:#181818;stroke-width:0.5;"/><text fill="#000000" font-family="sans-serif" font-size="14" lengthAdjust="spacing" textLength="218.9688" x="150.5761" y="1130.0451">UC-A3: Manage System Settings</text></g><g class="entity" data-entity="UC_A4" data-source-line="32" data-uid="ent0021" id="entity_UC_A4"><ellipse cx="260.0591" cy="1218.7458" fill="#F1F1F1" rx="135.3291" ry="29.4658" style="stroke:#181818;stroke-width:0.5;"/><text fill="#000000" font-family="sans-serif" font-size="14" lengthAdjust="spacing" textLength="239.4902" x="140.3139" y="1222.0368">UC-A4: Manage Medical Specialties</text></g><g class="entity" data-entity="UC_A5" data-source-line="33" data-uid="ent0022" id="entity_UC_A5"><ellipse cx="260.0618" cy="1305.7504" fill="#F1F1F1" rx="102.9518" ry="22.9904" style="stroke:#181818;stroke-width:0.5;"/><text fill="#000000" font-family="sans-serif" font-size="14" lengthAdjust="spacing" textLength="170.1123" x="175.0057" y="1309.0414">UC-A5: Resolve Disputes</text></g><g class="entity" data-entity="UC_A6" data-source-line="34" data-uid="ent0023" id="entity_UC_A6"><ellipse cx="260.0611" cy="1393.7542" fill="#F1F1F1" rx="140.3211" ry="30.4642" style="stroke:#181818;stroke-width:0.5;"/><text fill="#000000" font-family="sans-serif" font-size="14" lengthAdjust="spacing" textLength="249.9766" x="135.0728" y="1397.0452">UC-A6: Monitor System Performance</text></g><!--entity Patient--><g class="entity" data-entity="Patient" data-source-line="5" data-uid="ent0002" id="entity_Patient"><ellipse cx="29.2388" cy="273" fill="#F1F1F1" rx="8" ry="8" style="stroke:#181818;stroke-width:0.5;"/><path d="M29.2388,281 L29.2388,308 M16.2388,289 L42.2388,289 M29.2388,308 L16.2388,323 M29.2388,308 L42.2388,323" fill="none" style="stroke:#181818;stroke-width:0.5;"/><text fill="#000000" font-family="sans-serif" font-size="14" lengthAdjust="spacing" textLength="46.4775" x="6" y="338.0352">Patient</text></g><!--entity Doctor--><g class="entity" data-entity="Doctor" data-source-line="6" data-uid="ent0003" id="entity_Doctor"><ellipse cx="29.2406" cy="786" fill="#F1F1F1" rx="8" ry="8" style="stroke:#181818;stroke-width:0.5;"/><path d="M29.2406,794 L29.2406,821 M16.2406,802 L42.2406,802 M29.2406,821 L16.2406,836 M29.2406,821 L42.2406,836" fill="none" style="stroke:#181818;stroke-width:0.5;"/><text fill="#000000" font-family="sans-serif" font-size="14" lengthAdjust="spacing" textLength="45.8213" x="6.33" y="851.0352">Doctor</text></g><!--entity Admin--><g class="entity" data-entity="Admin" data-source-line="7" data-uid="ent0004" id="entity_Admin"><ellipse cx="29.2382" cy="1308" fill="#F1F1F1" rx="8" ry="8" style="stroke:#181818;stroke-width:0.5;"/><path d="M29.2382,1316 L29.2382,1343 M16.2382,1324 L42.2382,1324 M29.2382,1343 L16.2382,1358 M29.2382,1343 L42.2382,1358" fill="none" style="stroke:#181818;stroke-width:0.5;"/><text fill="#000000" font-family="sans-serif" font-size="14" lengthAdjust="spacing" textLength="44.2764" x="7.1" y="1373.0352">Admin</text></g><!--link Patient to UC_P1--><g class="link" data-entity-1="Patient" data-entity-2="UC_P1" data-source-line="38" data-uid="lnk24" id="link_Patient_UC_P1"><path d="M50.75,264.1 C61.01,248.19 74.82,230.91 91.48,219.75 C112.78,205.47 132.7293,197.5058 157.5993,191.2858" fill="none" id="Patient-to-UC_P1" style="stroke:#181818;stroke-width:1;"/><polygon fill="#181818" points="163.42,189.83,153.7184,188.1332,158.5694,191.0431,155.6594,195.8941,163.42,189.83" style="stroke:#181818;stroke-width:1;"/></g><!--link Patient to UC_P2--><g class="link" data-entity-1="Patient" data-entity-2="UC_P2" data-source-line="39" data-uid="lnk25" id="link_Patient_UC_P2"><path d="M52.6,298.64 C81.16,293.4 126.2886,285.1133 170.4686,277.0033" fill="none" id="Patient-to-UC_P2" style="stroke:#181818;stroke-width:1;"/><polygon fill="#181818" points="176.37,275.92,166.7957,273.6107,171.4522,276.8228,168.2401,281.4792,176.37,275.92" style="stroke:#181818;stroke-width:1;"/></g><!--link Patient to UC_P3--><g class="link" data-entity-1="Patient" data-entity-2="UC_P3" data-source-line="40" data-uid="lnk26" id="link_Patient_UC_P3"><path d="M52.6,306.75 C80.93,311.83 125.4842,319.8109 169.4242,327.6909" fill="none" id="Patient-to-UC_P3" style="stroke:#181818;stroke-width:1;"/><polygon fill="#181818" points="175.33,328.75,167.1774,323.2241,170.4085,327.8674,165.7652,331.0985,175.33,328.75" style="stroke:#181818;stroke-width:1;"/></g><!--link Patient to UC_P4--><g class="link" data-entity-1="Patient" data-entity-2="UC_P4" data-source-line="41" data-uid="lnk27" id="link_Patient_UC_P4"><path d="M32.27,264.05 C36.67,224.39 50.21,164.57 91.48,135.75 C277.25,6 564.5658,134.9855 674.7758,193.2555" fill="none" id="Patient-to-UC_P4" style="stroke:#181818;stroke-width:1;"/><polygon fill="#181818" points="680.08,196.06,673.9933,188.3172,675.6598,193.723,670.254,195.3895,680.08,196.06" style="stroke:#181818;stroke-width:1;"/></g><!--link Patient to UC_P5--><g class="link" data-entity-1="Patient" data-entity-2="UC_P5" data-source-line="42" data-uid="lnk28" id="link_Patient_UC_P5"><path d="M50.73,341.1 C60.98,356.86 74.79,373.91 91.48,384.75 C117.12,401.41 143.1866,409.7479 172.3166,415.0379" fill="none" id="Patient-to-UC_P5" style="stroke:#181818;stroke-width:1;"/><polygon fill="#181818" points="178.22,416.11,170.0795,410.5663,173.3005,415.2166,168.6501,418.4375,178.22,416.11" style="stroke:#181818;stroke-width:1;"/></g><!--link Patient to UC_P6--><g class="link" data-entity-1="Patient" data-entity-2="UC_P6" data-source-line="43" data-uid="lnk29" id="link_Patient_UC_P6"><path d="M35.24,341.32 C41.92,377.06 57.18,429.19 91.48,459.75 C108.77,475.16 125.0657,483.5805 147.4457,490.1905" fill="none" id="Patient-to-UC_P6" style="stroke:#181818;stroke-width:1;"/><polygon fill="#181818" points="153.2,491.89,145.7016,485.5045,148.4048,490.4737,143.4356,493.1769,153.2,491.89" style="stroke:#181818;stroke-width:1;"/></g><!--link Doctor to UC_D1--><g class="link" data-entity-1="Doctor" data-entity-2="UC_D1" data-source-line="45" data-uid="lnk30" id="link_Doctor_UC_D1"><path d="M32.64,854.24 C37.31,895.6 51.08,960.42 91.48,997.75 C109.32,1014.23 126.8549,1022.9355 150.4149,1029.2555" fill="none" id="Doctor-to-UC_D1" style="stroke:#181818;stroke-width:1;"/><polygon fill="#181818" points="156.21,1030.81,148.5537,1024.6148,151.3807,1029.5145,146.481,1032.3416,156.21,1030.81" style="stroke:#181818;stroke-width:1;"/></g><!--link Doctor to UC_D2--><g class="link" data-entity-1="Doctor" data-entity-2="UC_D2" data-source-line="46" data-uid="lnk31" id="link_Doctor_UC_D2"><path d="M33.15,777.1 C38.27,736.7 52.41,674.2 91.48,637.75 C107.44,622.85 122.1005,614.6242 143.0905,607.8442" fill="none" id="Doctor-to-UC_D2" style="stroke:#181818;stroke-width:1;"/><polygon fill="#181818" points="148.8,606,139.0062,604.96,144.0421,607.5369,141.4652,612.5727,148.8,606" style="stroke:#181818;stroke-width:1;"/></g><!--link Doctor to UC_D3--><g class="link" data-entity-1="Doctor" data-entity-2="UC_D3" data-source-line="47" data-uid="lnk32" id="link_Doctor_UC_D3"><path d="M52.35,777.16 C62.56,762.34 75.9,746.43 91.48,735.75 C109.23,723.58 124.3271,716.2849 145.1171,709.3649" fill="none" id="Doctor-to-UC_D3" style="stroke:#181818;stroke-width:1;"/><polygon fill="#181818" points="150.81,707.47,141.0074,706.5171,146.0659,709.0491,143.5339,714.1076,150.81,707.47" style="stroke:#181818;stroke-width:1;"/></g><!--link Doctor to UC_D4--><g class="link" data-entity-1="Doctor" data-entity-2="UC_D4" data-source-line="48" data-uid="lnk33" id="link_Doctor_UC_D4"><path d="M52.6,812.03 C79.53,807.56 120.5209,800.7521 162.8309,793.7321" fill="none" id="Doctor-to-UC_D4" style="stroke:#181818;stroke-width:1;"/><polygon fill="#181818" points="168.75,792.75,159.2167,790.2771,163.8174,793.5684,160.5261,798.1692,168.75,792.75" style="stroke:#181818;stroke-width:1;"/></g><!--link Doctor to UC_D5--><g class="link" data-entity-1="Doctor" data-entity-2="UC_D5" data-source-line="49" data-uid="lnk34" id="link_Doctor_UC_D5"><path d="M52.6,820.24 C81.38,826.03 127.1177,835.2274 171.5377,844.1574" fill="none" id="Doctor-to-UC_D5" style="stroke:#181818;stroke-width:1;"/><polygon fill="#181818" points="177.42,845.34,169.3849,839.6446,172.5181,844.3545,167.8082,847.4877,177.42,845.34" style="stroke:#181818;stroke-width:1;"/></g><!--link Doctor to UC_D6--><g class="link" data-entity-1="Doctor" data-entity-2="UC_D6" data-source-line="50" data-uid="lnk35" id="link_Doctor_UC_D6"><path d="M49.1,854.24 C59.41,871.66 73.73,891.13 91.48,903.75 C109.45,916.53 125.0824,924.0208 146.4224,930.8108" fill="none" id="Doctor-to-UC_D6" style="stroke:#181818;stroke-width:1;"/><polygon fill="#181818" points="152.14,932.63,144.7765,926.0895,147.3754,931.114,142.3509,933.7129,152.14,932.63" style="stroke:#181818;stroke-width:1;"/></g><!--link Admin to UC_A1--><g class="link" data-entity-1="Admin" data-entity-2="UC_A1" data-source-line="52" data-uid="lnk36" id="link_Admin_UC_A1"><path d="M29.77,1376.28 C31.54,1422.32 42.36,1497.64 91.48,1533.75 C281.31,1673.32 575.4099,1484.0059 680.8299,1406.7759" fill="none" id="Admin-to-UC_A1" style="stroke:#181818;stroke-width:1;"/><polygon fill="#181818" points="685.67,1403.23,676.0459,1405.322,681.6366,1406.1849,680.7737,1411.7755,685.67,1403.23" style="stroke:#181818;stroke-width:1;"/></g><!--link Admin to UC_A2--><g class="link" data-entity-1="Admin" data-entity-2="UC_A2" data-source-line="53" data-uid="lnk37" id="link_Admin_UC_A2"><path d="M44.31,1376.24 C54.27,1398.43 69.76,1425.13 91.48,1441.75 C109.45,1455.5 125.5374,1463.3689 147.4174,1470.1289" fill="none" id="Admin-to-UC_A2" style="stroke:#181818;stroke-width:1;"/><polygon fill="#181818" points="153.15,1471.9,145.7318,1465.4215,148.3728,1470.424,143.3703,1473.065,153.15,1471.9" style="stroke:#181818;stroke-width:1;"/></g><!--link Admin to UC_A3--><g class="link" data-entity-1="Admin" data-entity-2="UC_A3" data-source-line="54" data-uid="lnk38" id="link_Admin_UC_A3"><path d="M34.3,1299.2 C40.33,1261.44 55.18,1204.88 91.48,1171.75 C107.72,1156.92 122.6046,1148.7159 143.7646,1141.9559" fill="none" id="Admin-to-UC_A3" style="stroke:#181818;stroke-width:1;"/><polygon fill="#181818" points="149.48,1140.13,139.6896,1139.0586,144.7171,1141.6516,142.1241,1146.6791,149.48,1140.13" style="stroke:#181818;stroke-width:1;"/></g><!--link Admin to UC_A4--><g class="link" data-entity-1="Admin" data-entity-2="UC_A4" data-source-line="55" data-uid="lnk39" id="link_Admin_UC_A4"><path d="M51.6,1304.81 C62.1,1290.95 75.86,1275.75 91.48,1265.75 C110.56,1253.52 127.1146,1246.1921 149.0846,1239.4421" fill="none" id="Admin-to-UC_A4" style="stroke:#181818;stroke-width:1;"/><polygon fill="#181818" points="154.82,1237.68,145.0421,1236.4996,150.0405,1239.1484,147.3916,1244.1468,154.82,1237.68" style="stroke:#181818;stroke-width:1;"/></g><!--link Admin to UC_A5--><g class="link" data-entity-1="Admin" data-entity-2="UC_A5" data-source-line="56" data-uid="lnk40" id="link_Admin_UC_A5"><path d="M51.77,1334.74 C79.19,1330.9 122.3079,1324.8715 165.8279,1318.7815" fill="none" id="Admin-to-UC_A5" style="stroke:#181818;stroke-width:1;"/><polygon fill="#181818" points="171.77,1317.95,162.3025,1315.2359,166.8182,1318.6429,163.4112,1323.1587,171.77,1317.95" style="stroke:#181818;stroke-width:1;"/></g><!--link Admin to UC_A6--><g class="link" data-entity-1="Admin" data-entity-2="UC_A6" data-source-line="57" data-uid="lnk41" id="link_Admin_UC_A6"><path d="M51.77,1343.02 C77.91,1349.41 117.892,1359.2036 159.812,1369.4636" fill="none" id="Admin-to-UC_A6" style="stroke:#181818;stroke-width:1;"/><polygon fill="#181818" points="165.64,1370.89,157.849,1364.8651,160.7833,1369.7013,155.9471,1372.6357,165.64,1370.89" style="stroke:#181818;stroke-width:1;"/></g><!--link UC_P3 to UC_P4--><g class="link" data-entity-1="UC_P3" data-entity-2="UC_P4" data-source-line="60" data-uid="lnk42" id="link_UC_P3_UC_P4"><path d="M330.37,325.33 C415.38,302.75 553.2312,266.1207 641.4912,242.6707" fill="none" id="UC_P3-to-UC_P4" style="stroke:#181818;stroke-width:1;"/><polygon fill="#181818" points="647.29,241.13,637.5646,239.5752,642.4577,242.4139,639.6189,247.3069,647.29,241.13" style="stroke:#181818;stroke-width:1;"/><text fill="#000000" font-family="sans-serif" font-size="13" lengthAdjust="spacing" textLength="59.3569" x="465.64" y="264.1784">&#171;include&#187;</text></g><!--link UC_D1 to UC_A1--><g class="link" data-entity-1="UC_D1" data-entity-2="UC_A1" data-source-line="63" data-uid="lnk43" id="link_UC_D1_UC_A1"><path d="M342.28,1056.55 C363.37,1062.75 385.51,1070.98 404.64,1081.75 C531.98,1153.42 646.3348,1280.1425 695.7748,1339.1025" fill="none" id="UC_D1-to-UC_A1" style="stroke:#181818;stroke-width:1;"/><polygon fill="#181818" points="699.63,1343.7,696.9122,1334.2335,696.4173,1339.8687,690.7822,1339.3738,699.63,1343.7" style="stroke:#181818;stroke-width:1;"/><text fill="#000000" font-family="sans-serif" font-size="13" lengthAdjust="spacing" textLength="119.793" x="435.64" y="1102.7884">&#171;request approval&#187;</text></g><!--SRC=[ZPJDYjim4CVlVeeXbxqqXtmUp19G8_fn29WDwRKeyYGMKIHNadS9fT3NwElrIIhPYZROsQKvnCpVCvwPtumayU30QJ3YM3aeXK7kX5QPFGbLCyFEK3D-OaVSkej42A-PEahCiWUWU10AWN6dZStQ1nJC2LGkMbI7HpH8UHRg9ivUhCCpx7MZIcOkMKm4exKKId3OCENDi_yQR5lN4VpCmF_QluThAjXPX3MpQ5kziSYz0Rlrzs82pC9ejnuNapovF-5HM6TOQ7Cq29cca6aEMsI6Lt18dTXXm2m5p7BugFK9I5rheLmeVEW-J-xpF7Pu6t0dmI95B79uOWvZBKFFPV9Svh2ho-2xmL9m9g4m-Y0aZh88h_l6s-neOaSzk-ZzBZgQqD4MdGFop8HaUo65ky2MLrWseO9-N298Pmb9JFWk6PfOKi_ocy2NDECllanjBiEG19Dwc6k30L5Xq78ZwljT9QXq6PFu6GXrjC1K2PyGoxtVsyIrNVAtiPA4bNYilZsZd_6_y9A4btYydr6X2SLt9yE7rjhSOKGINF8ADyRu4RMD38CIMFAwfDT5sjR81PEUyvt0X9U4NKMhPUXEsBfnzzmJM-BPRhGIWKAiha3ZpzsPAUvNvbUuDaWBQRoweNkTzpYeuS0FbEb0cGsK-K1P39HbbiKfHOLE-iAqBypwmhmlBFg2JzDjK1J8f6TFU_QiPyzxzg9dBmF9huhBfWotkMoNpLQYjbbtcoKeaCFZe-WyLwikp4-6bQ0FrutjNlibwlR-x-y_DWmOmeG_WAtq2xWgvB6DT7dMtIkfjJQ3mHyDMWUiFGjC-bJ_0000]--></g></svg>